<?xml version="1.0" encoding="UTF-8" ?>
<!DOCTYPE svg PUBLIC "-//W3C//DTD SVG 1.1//EN" "http://www.w3.org/Graphics/SVG/1.1/DTD/svg11.dtd">
<svg width="200pt" height="200pt" viewBox="0 0 200 200" version="1.1" xmlns="http://www.w3.org/2000/svg">
<path fill="#ffffff" d=" M 0.00 0.00 L 200.00 0.00 L 200.00 200.00 L 0.00 200.00 L 0.00 0.00 Z" />
<path fill="#cd9715" d=" M 64.55 15.89 C 87.61 5.25 115.14 5.25 138.46 15.12 C 138.40 15.58 138.28 16.50 138.22 16.96 C 145.25 20.60 151.84 25.03 157.93 30.09 C 166.32 37.80 172.95 47.22 179.47 56.51 C 181.72 59.13 183.33 62.37 183.54 65.86 C 184.06 76.21 187.18 86.30 186.54 96.74 C 185.52 88.24 185.47 79.43 181.64 71.55 C 181.62 74.86 181.88 78.21 181.12 81.47 C 179.02 76.86 178.65 71.70 176.54 67.10 C 175.67 65.03 173.55 63.98 171.80 62.80 C 162.93 42.15 143.07 27.41 121.53 22.12 C 107.70 18.68 93.09 20.29 79.59 24.39 C 68.86 28.33 58.78 34.50 50.94 42.89 C 36.18 56.97 28.96 77.79 29.65 97.97 C 30.58 116.33 38.57 134.39 52.04 146.98 C 54.93 149.78 58.21 152.12 61.18 154.81 C 50.53 148.30 42.27 138.50 36.37 127.60 C 28.27 111.21 25.99 91.73 31.12 74.10 C 32.36 67.46 36.42 61.84 37.97 55.31 C 27.11 72.21 23.62 93.46 28.14 113.00 C 34.00 139.09 55.00 160.86 80.58 168.35 C 89.76 171.08 99.50 172.08 109.01 170.74 C 114.54 170.41 119.71 168.24 125.18 167.50 C 122.83 171.57 117.51 171.81 113.38 172.60 C 112.00 173.03 110.61 173.49 109.16 173.59 C 94.49 174.18 79.67 171.23 66.49 164.71 C 62.47 162.65 58.73 160.09 54.80 157.87 C 58.54 160.97 62.53 163.77 66.87 165.98 C 72.05 169.06 77.06 172.74 82.99 174.24 C 103.15 179.37 125.32 175.91 142.96 164.88 C 157.55 156.21 168.63 142.30 174.90 126.62 C 175.42 126.64 176.46 126.70 176.98 126.72 C 177.73 124.60 178.51 122.49 179.28 120.37 C 179.61 120.42 180.28 120.52 180.62 120.56 C 174.80 139.36 162.36 156.06 145.67 166.57 C 137.74 171.90 128.73 175.38 119.51 177.76 C 126.46 177.95 132.91 174.92 139.09 172.11 C 152.13 165.63 164.26 156.18 171.70 143.47 C 171.61 144.18 171.44 145.59 171.35 146.29 C 160.09 162.02 143.47 173.58 124.90 178.92 L 124.11 179.21 C 118.33 180.02 112.65 181.69 106.77 181.60 C 105.59 181.06 104.43 180.51 103.25 179.97 L 103.91 181.68 C 94.54 182.04 85.29 180.22 76.29 177.76 C 68.24 175.37 61.06 170.95 53.77 166.91 C 63.32 173.33 73.84 178.51 85.16 180.84 C 93.58 183.07 102.36 182.81 110.99 182.53 C 138.04 180.50 163.36 164.42 177.28 141.22 C 182.93 131.82 186.96 121.40 188.35 110.50 C 189.09 116.30 186.80 121.79 185.13 127.22 C 182.27 135.72 177.78 143.53 172.44 150.70 C 173.18 150.66 173.97 150.64 174.45 149.96 C 177.14 147.18 178.71 143.57 181.02 140.49 C 179.49 145.31 176.32 149.36 173.40 153.39 C 164.83 163.27 154.80 172.18 142.88 177.78 C 133.47 182.41 123.31 185.39 112.89 186.52 C 106.64 187.96 100.31 186.65 94.01 186.58 C 88.68 186.42 83.59 184.44 78.26 184.36 C 78.10 183.86 77.78 182.87 77.62 182.37 C 85.83 185.04 94.41 185.69 102.98 186.05 C 110.50 185.88 117.93 184.88 125.35 183.64 C 118.20 182.64 111.15 184.63 104.02 184.59 C 90.07 184.96 76.03 181.63 63.61 175.27 C 61.59 174.00 59.08 174.81 56.88 174.62 C 64.14 176.07 70.23 180.83 77.59 181.98 C 76.98 182.47 76.37 182.95 75.75 183.43 C 71.67 181.54 67.53 179.59 63.04 178.92 C 71.17 182.38 79.34 186.00 88.12 187.48 C 97.20 189.43 106.51 189.16 115.73 189.56 C 114.97 190.28 114.10 190.81 113.13 191.15 C 92.52 193.74 71.46 187.99 54.06 176.92 C 45.06 171.42 37.75 163.76 30.89 155.87 C 13.88 134.18 7.21 104.72 13.78 77.90 C 19.62 50.72 39.54 27.53 64.55 15.89 Z" />
<path fill="#000000" d=" M 104.97 25.97 C 106.44 25.51 107.90 25.03 109.37 24.59 C 111.51 26.06 114.35 25.11 116.44 26.69 C 121.09 29.42 125.86 32.33 129.19 36.68 C 131.49 39.90 134.92 42.10 138.43 43.81 C 141.79 50.14 146.89 55.24 151.02 61.03 C 156.09 68.62 161.02 76.30 165.83 84.06 C 169.65 90.32 173.32 96.68 176.74 103.17 C 177.99 105.65 179.08 108.21 180.33 110.69 C 180.99 111.45 181.73 112.15 182.52 112.80 C 182.97 113.15 183.87 113.84 184.32 114.19 C 184.34 114.99 184.39 116.60 184.41 117.40 C 182.22 118.87 179.60 119.13 177.03 119.10 L 182.39 119.82 C 180.29 120.04 176.10 120.47 174.01 120.69 C 173.07 114.44 168.27 109.96 163.35 106.52 C 157.29 101.53 152.96 94.79 148.73 88.26 C 145.43 83.15 143.92 76.78 139.44 72.52 C 128.34 66.84 115.39 66.86 103.81 62.57 C 103.55 62.91 103.04 63.60 102.79 63.95 C 102.27 65.07 101.75 66.18 101.23 67.31 C 100.57 67.27 99.26 67.20 98.60 67.17 C 97.75 69.39 97.24 71.72 97.37 74.11 C 96.41 74.89 95.47 75.71 94.56 76.56 C 93.76 79.12 94.00 82.07 92.29 84.27 C 91.36 85.70 90.51 87.18 89.73 88.69 C 89.61 90.44 89.42 92.17 89.23 93.91 C 86.91 95.53 84.66 97.26 82.43 98.99 C 82.41 100.40 82.42 101.82 82.46 103.23 C 80.54 104.86 78.70 106.57 76.99 108.41 C 75.15 108.83 73.29 109.13 71.43 109.43 C 71.10 108.92 70.43 107.91 70.09 107.41 C 69.75 107.51 69.06 107.72 68.72 107.82 C 67.99 106.29 66.18 104.34 67.68 102.68 C 70.40 99.22 71.81 94.99 73.82 91.12 C 76.41 82.20 81.87 74.60 86.32 66.56 C 87.23 65.16 87.63 63.56 87.65 61.90 C 89.77 58.28 91.85 54.38 91.57 50.04 C 89.84 48.03 88.15 45.99 86.38 44.02 C 86.32 42.57 86.28 41.12 86.25 39.68 C 86.66 40.22 87.48 41.31 87.89 41.85 C 88.20 41.33 88.82 40.30 89.13 39.79 C 88.94 39.41 88.57 38.65 88.38 38.27 L 87.20 38.48 C 87.25 37.57 87.36 35.75 87.42 34.85 C 88.97 34.61 90.52 34.36 92.07 34.11 C 91.59 33.07 91.15 32.02 90.70 30.97 C 92.87 29.70 95.03 27.63 97.75 28.32 C 100.45 28.89 103.53 28.68 104.97 25.97 Z" />
<path fill="#ffffff" d=" M 23.30 88.92 C 23.74 80.98 25.91 73.23 29.05 65.96 C 27.74 70.75 25.97 75.41 25.11 80.31 C 22.62 94.60 24.15 109.45 28.78 123.16 C 31.11 129.47 33.60 135.87 37.75 141.23 C 38.51 142.31 39.81 143.20 39.81 144.65 C 39.18 144.34 38.56 144.01 37.96 143.66 C 36.07 138.74 32.44 134.70 30.25 129.90 C 24.31 117.24 20.92 102.89 23.30 88.92 Z" />
<path fill="#bc2439" d=" M 109.52 74.86 C 112.50 75.37 115.68 75.86 117.97 78.04 C 120.72 80.56 123.91 82.67 126.26 85.60 C 126.86 87.60 126.98 89.71 127.33 91.76 C 130.97 91.28 134.67 91.39 137.92 93.30 C 140.06 93.50 142.86 92.76 143.90 95.29 C 145.57 96.23 147.29 97.10 148.85 98.22 C 148.88 101.29 147.62 104.13 146.53 106.94 C 144.59 108.35 142.98 110.53 140.44 110.82 C 137.20 111.52 134.41 113.56 131.06 113.85 C 129.83 114.53 128.60 115.20 127.37 115.87 C 127.14 122.72 127.79 129.53 127.75 136.38 C 126.19 137.30 124.43 138.11 123.70 139.91 C 121.41 138.93 119.19 137.35 118.47 134.85 C 116.63 128.77 115.26 122.55 113.98 116.34 C 110.31 116.98 106.76 118.76 102.98 118.43 C 100.40 117.48 97.98 115.98 96.09 113.97 C 91.96 109.45 88.08 104.52 86.05 98.66 C 94.68 97.54 102.88 94.44 111.44 92.98 C 111.55 86.89 112.03 80.60 109.52 74.86 Z" />
<path fill="#cd9715" d=" M 182.85 96.21 C 184.63 101.61 183.23 107.34 182.52 112.80 C 181.73 112.15 180.99 111.45 180.33 110.69 L 181.46 110.64 C 182.15 105.85 182.27 101.01 182.85 96.21 Z" />
<path fill="#bc2439" d=" M 134.64 117.50 C 136.02 117.42 137.40 117.37 138.78 117.34 C 143.04 126.29 151.92 133.66 151.70 144.28 C 146.81 144.50 141.54 144.41 137.38 141.46 C 137.54 138.11 137.73 134.74 137.39 131.40 C 136.59 126.71 133.28 122.42 134.64 117.50 Z" />
<path fill="#cd9715" d=" M 185.52 128.78 C 185.99 132.11 184.82 135.25 183.25 138.12 C 183.71 134.94 184.68 131.87 185.52 128.78 Z" />
<path fill="#ffffff" d=" M 171.74 152.21 C 173.60 152.82 170.67 155.82 169.37 155.58 C 168.81 154.15 170.41 152.55 171.74 152.21 Z" />
<path fill="#ffffff" d=" M 158.52 165.91 C 160.84 162.32 164.06 159.41 167.92 157.54 C 165.46 161.02 162.16 163.75 158.52 165.91 Z" />
<path fill="#ffffff" d=" M 143.51 175.23 C 148.77 171.57 154.28 168.31 159.47 164.54 C 155.68 169.79 149.69 173.48 143.51 175.23 Z" />
<path fill="#ffffff" d=" M 127.45 181.05 C 132.87 180.30 137.74 177.69 142.53 175.19 C 142.55 175.65 142.61 176.57 142.63 177.03 C 138.14 178.76 133.64 180.49 129.20 182.37 C 128.61 181.93 128.03 181.49 127.45 181.05 Z" />
<path fill="#ffffff" d=" M 117.56 178.12 C 118.70 177.16 119.35 177.39 119.50 178.82 C 118.35 179.78 117.70 179.55 117.56 178.12 Z" />
<path fill="#ffffff" d=" M 106.72 180.10 C 108.43 178.90 111.55 178.77 113.73 179.05 C 112.18 180.64 108.87 180.70 106.72 180.10 Z" />
<path fill="#ffffff" d=" M 125.17 182.07 C 125.52 181.94 126.23 181.67 126.58 181.54 C 126.55 182.03 126.48 183.01 126.44 183.51 C 126.11 183.36 125.44 183.06 125.10 182.91 L 125.17 182.07 Z" />
</svg>
